<?xml version="1.0" encoding="UTF-8" standalone="no"?>
<!-- Created with Inkscape (http://www.inkscape.org/) -->

<svg
   xmlns:dc="http://purl.org/dc/elements/1.1/"
   xmlns:cc="http://creativecommons.org/ns#"
   xmlns:rdf="http://www.w3.org/1999/02/22-rdf-syntax-ns#"
   xmlns:svg="http://www.w3.org/2000/svg"
   xmlns="http://www.w3.org/2000/svg"
   xmlns:sodipodi="http://sodipodi.sourceforge.net/DTD/sodipodi-0.dtd"
   xmlns:inkscape="http://www.inkscape.org/namespaces/inkscape"
   width="19.417574mm"
   height="24.909502mm"
   viewBox="0 0 19.417574 24.909502"
   version="1.1"
   id="svg19977"
   inkscape:version="0.92.4 5da689c313, 2019-01-14"
   sodipodi:docname="logo.svg">
  <defs
     id="defs19971" />
  <sodipodi:namedview
     id="base"
     pagecolor="#ffffff"
     bordercolor="#666666"
     borderopacity="1.0"
     inkscape:pageopacity="0.0"
     inkscape:pageshadow="2"
     inkscape:zoom="2.8"
     inkscape:cx="24.530587"
     inkscape:cy="9.9760939"
     inkscape:document-units="mm"
     inkscape:current-layer="layer1"
     showgrid="false"
     fit-margin-top="0"
     fit-margin-left="0"
     fit-margin-right="0"
     fit-margin-bottom="0"
     inkscape:window-width="1838"
     inkscape:window-height="1009"
     inkscape:window-x="82"
     inkscape:window-y="34"
     inkscape:window-maximized="1" />
  <metadata
     id="metadata19974">
    <rdf:RDF>
      <cc:Work
         rdf:about="">
        <dc:format>image/svg+xml</dc:format>
        <dc:type
           rdf:resource="http://purl.org/dc/dcmitype/StillImage" />
        <dc:title></dc:title>
      </cc:Work>
    </rdf:RDF>
  </metadata>
  <g
     inkscape:label="Layer 1"
     inkscape:groupmode="layer"
     id="layer1"
     transform="translate(165.76563,-105.13679)">
    <path
       style="display:inline;fill:#000000;fill-opacity:1;stroke-width:0.10194194"
       d="m -159.78305,129.74257 c -0.56055,-0.18491 -1.45494,-0.55909 -1.98754,-0.83301 -0.79061,-0.40611 -1.13796,-0.66741 -1.88899,-1.42016 -1.53808,-1.54013 -2.10931,-2.95167 -2.10604,-5.20377 0,-1.41351 0.21537,-2.40503 0.7798,-3.59265 0.73335,-1.54799 1.68213,-2.59586 4.13274,-4.56457 2.63802,-2.12013 3.46232,-3.08266 3.83675,-4.48347 0.26508,-0.99243 0.13254,-2.62648 -0.32136,-3.96511 -0.0912,-0.26784 -0.14365,-0.51141 -0.11601,-0.53929 0.0663,-0.0636 1.19174,0.69604 1.83149,1.23564 0.69671,0.58759 1.68361,1.83683 2.01876,2.55529 1.02251,2.19123 0.75214,4.18572 -0.83639,6.17431 -0.88578,1.10871 -1.01338,1.85426 -0.4341,2.5423 0.69585,0.82683 2.06494,0.8182 2.85126,-0.0277 0.54424,-0.57847 0.58986,-0.74525 0.652,-2.37824 0.0474,-1.2865 0.0938,-1.60984 0.28767,-2.03866 0.42414,-0.94128 1.27125,-1.57085 2.34567,-1.74256 l 0.42337,-0.0691 -0.25408,0.67788 c -0.33884,0.89932 -0.34352,1.82902 -0.0302,2.61047 0.13253,0.30812 0.56246,1.08075 0.96092,1.71638 0.42358,0.67656 0.84248,1.50077 1.00981,1.98781 0.26224,0.76789 0.28491,0.94635 0.27861,2.31035 0,1.3069 -0.0382,1.58384 -0.28475,2.39072 -0.91808,3.00697 -3.08849,5.24049 -5.97612,6.14975 -0.36472,0.11596 -0.80044,0.2347 -0.96892,0.26788 l -0.30651,0.0579 0.25398,-0.17397 c 0.94138,-0.64166 1.37297,-1.51727 1.37106,-2.78113 0,-0.96508 -0.29744,-1.67937 -0.92068,-2.22858 -0.74218,-0.65331 -1.48164,-0.76711 -2.76588,-0.42561 -0.84599,0.22651 -1.28202,0.18783 -1.99222,-0.16561 -0.97838,-0.48873 -1.46848,-1.5932 -1.36908,-3.08647 0.0303,-0.47993 0.0884,-0.9869 0.12432,-1.12718 0.0498,-0.19874 -0.058,-0.12423 -0.51311,0.35675 -2.0253,2.14631 -2.52815,5.29196 -1.23892,7.74779 0.30645,0.58431 1.46542,1.86574 2.00632,2.21867 0.34846,0.2264 0.29709,0.21809 -0.8668,-0.16571 z"
       id="path21973"
       inkscape:connector-curvature="0" />
  </g>
</svg>
